# Blender 3.5.0
# www.blender.org
mtllib player_left_hand.mtl
o 立方体.003
v 0.019837 -0.022062 0.166856
v 0.283664 0.182290 0.166856
v 0.019837 -0.022062 -0.166856
v 0.283664 0.182290 -0.166856
v 0.775845 -1.235446 0.306434
v 1.260366 -0.860152 0.306434
v 0.775845 -1.235446 -0.306434
v 1.260366 -0.860152 -0.306434
vn -0.6124 0.7906 -0.0000
vn -0.0598 0.0772 -0.9952
vn 0.6124 -0.7906 -0.0000
vn -0.0598 0.0772 0.9952
vn -0.8487 -0.5288 -0.0000
vn 0.7297 0.6837 -0.0000
vt 1.000000 0.406641
vt 0.000000 0.613281
vt 0.400000 0.406641
vt 1.000000 0.606641
vt 0.000000 0.813281
vt 0.800000 0.806641
vt 0.800000 0.406641
vt 1.000000 0.206641
vt 0.400000 0.206641
vt 1.000000 0.406641
vt 0.800000 0.606641
vt 0.800000 0.000000
vt 0.200000 0.613281
vt 0.600000 0.406641
vt 0.800000 0.200000
vt 0.200000 0.813281
vt 0.600000 0.806641
vt 0.800000 0.206641
vt 1.000000 0.000000
vt 0.600000 0.206641
vt 0.800000 0.406641
vt 1.000000 0.200000
vt 0.600000 0.606641
s 0
usemtl マテリアル.001
f 1/1/1 2/4/1 4/11/1 3/7/1
f 3/8/2 4/10/2 8/21/2 7/18/2
f 7/19/3 8/22/3 6/15/3 5/12/3
f 5/13/4 6/16/4 2/5/4 1/2/4
f 3/9/5 7/20/5 5/14/5 1/3/5
f 8/23/6 4/11/6 2/6/6 6/17/6
